<svg width="282" height="137" viewBox="0 0 282 137" fill="none" xmlns="http://www.w3.org/2000/svg">
<g clip-path="url(#clip0_31_843)">
<rect width="282" height="137" fill="white"/>
<path d="M47.7906 87.55C49.7906 88.6167 51.2073 90.0833 52.0406 91.95C52.9073 93.8167 53.2406 96.05 53.0406 98.65C52.8406 101.983 51.8906 104.467 50.1906 106.1C48.524 107.733 45.9573 108.55 42.4906 108.55C41.5906 108.55 40.7573 108.567 39.9906 108.6C39.2573 108.6 38.5573 108.55 37.8906 108.45C37.224 108.35 36.5406 108.183 35.8406 107.95C35.1406 107.683 34.3906 107.283 33.5906 106.75C32.024 105.717 30.9406 104.367 30.3406 102.7C29.774 101.033 29.4906 99.3167 29.4906 97.55C29.4906 95.7833 29.8073 94.1333 30.4406 92.6C31.074 91.0333 32.1073 89.7 33.5406 88.6C34.7073 87.6667 36.0073 86.9833 37.4406 86.55C38.9073 86.1167 40.374 85.9667 41.8406 86.1C42.5073 86.1667 43.074 86.2333 43.5406 86.3C44.0406 86.3333 44.5073 86.4 44.9406 86.5C45.374 86.6 45.8073 86.7333 46.2406 86.9C46.674 87.0667 47.1906 87.2833 47.7906 87.55ZM65.1406 120.5C65.1406 120.5 65.2406 120.533 65.4406 120.6C65.674 120.667 65.924 120.783 66.1906 120.95C66.4573 121.083 66.7073 121.283 66.9406 121.55C67.174 121.783 67.324 122.067 67.3906 122.4C67.5573 123.667 67.3406 124.65 66.7406 125.35C66.3406 125.817 65.9073 126.1 65.4406 126.2C64.974 126.3 64.724 126.35 64.6906 126.35H38.6406C37.274 126.35 36.2073 126.133 35.4406 125.7C34.674 125.3 34.2906 124.717 34.2906 123.95V117C34.2906 116.8 34.274 116.55 34.2406 116.25C34.2406 115.95 34.2406 115.633 34.2406 115.3C34.2406 114.933 34.2406 114.6 34.2406 114.3C34.274 114 34.2906 113.75 34.2906 113.55C34.3573 112.85 34.6906 112.283 35.2906 111.85C35.8906 111.417 36.574 111.2 37.3406 111.2C37.5073 111.2 37.7073 111.217 37.9406 111.25C38.2073 111.25 38.424 111.283 38.5906 111.35C39.024 111.483 39.374 111.717 39.6406 112.05C39.9073 112.35 40.1073 112.7 40.2406 113.1C40.374 113.5 40.4573 113.933 40.4906 114.4C40.524 114.833 40.5573 115.233 40.5906 115.6C40.5906 115.733 40.5906 116.05 40.5906 116.55C40.5906 117.017 40.5906 117.533 40.5906 118.1C40.5906 118.633 40.5906 119.133 40.5906 119.6C40.5906 120.033 40.5906 120.3 40.5906 120.4C40.6906 120.433 40.9573 120.483 41.3906 120.55C41.8573 120.583 42.7073 120.6 43.9406 120.6C45.0073 120.6 45.9573 120.583 46.7906 120.55C47.624 120.517 48.0573 120.5 48.0906 120.5H65.1406ZM65.7906 87.95C65.8906 88.1833 65.974 88.5333 66.0406 89C66.1073 89.4667 66.1573 89.95 66.1906 90.45C66.224 90.9167 66.2406 91.35 66.2406 91.75C66.2406 92.15 66.2406 92.3833 66.2406 92.45V109.7C66.2406 109.733 66.224 109.867 66.1906 110.1C66.1573 110.3 66.074 110.55 65.9406 110.85C65.8406 111.15 65.674 111.45 65.4406 111.75C65.2406 112.05 64.974 112.3 64.6406 112.5C64.174 112.8 63.6906 112.95 63.1906 112.95C62.524 112.95 61.9406 112.75 61.4406 112.35C61.0406 112.117 60.7406 111.783 60.5406 111.35C60.3073 110.95 60.1573 110.55 60.0906 110.15C60.024 109.75 59.974 109.367 59.9406 109V106.55H59.7906C59.2906 106.517 58.7406 106.5 58.1406 106.5C57.574 106.467 57.0073 106.417 56.4406 106.35C55.9073 106.283 55.424 106.167 54.9906 106C54.5573 105.8 54.2406 105.533 54.0406 105.2C53.8073 104.833 53.6906 104.4 53.6906 103.9C53.724 103.367 53.774 102.917 53.8406 102.55C53.9406 102.15 54.1406 101.817 54.4406 101.55C54.7406 101.283 55.2406 101.067 55.9406 100.9C56.074 100.867 56.324 100.85 56.6906 100.85C57.0906 100.817 57.4906 100.783 57.8906 100.75C58.324 100.717 58.724 100.7 59.0906 100.7C59.4906 100.667 59.774 100.65 59.9406 100.65V97.4C59.4406 97.4 58.874 97.4167 58.2406 97.45C57.6406 97.45 57.0573 97.4333 56.4906 97.4C55.9573 97.3333 55.4573 97.2333 54.9906 97.1C54.5573 96.9667 54.2406 96.7333 54.0406 96.4C53.9406 96.2333 53.8573 96.0167 53.7906 95.75C53.7573 95.4833 53.724 95.2167 53.6906 94.95C53.6906 94.65 53.7073 94.3667 53.7406 94.1C53.774 93.8333 53.8073 93.6 53.8406 93.4C53.9406 93.0333 54.1406 92.7167 54.4406 92.45C54.7406 92.1833 55.2406 91.9667 55.9406 91.8C56.0406 91.7667 56.2406 91.75 56.5406 91.75C56.874 91.7167 57.2406 91.7 57.6406 91.7C58.0406 91.6667 58.4406 91.65 58.8406 91.65C59.274 91.6167 59.6406 91.6 59.9406 91.6C59.9073 91.3 59.9073 90.8833 59.9406 90.35C59.974 89.8167 60.024 89.4167 60.0906 89.15C60.1906 88.8833 60.274 88.6167 60.3406 88.35C60.4073 88.0833 60.5573 87.8167 60.7906 87.55C61.0906 87.2167 61.4906 86.9833 61.9906 86.85C62.524 86.6833 63.0906 86.6333 63.6906 86.7C64.7573 86.8667 65.4573 87.2833 65.7906 87.95ZM47.0906 99.2C47.0906 98.4667 47.0573 97.7833 46.9906 97.15C46.924 96.4833 46.774 95.8833 46.5406 95.35C46.3406 94.7833 46.024 94.2833 45.5906 93.85C45.1573 93.4167 44.5906 93.0667 43.8906 92.8C43.124 92.5333 42.2906 92.4 41.3906 92.4C40.4906 92.4 39.6406 92.5667 38.8406 92.9C38.0406 93.2 37.3406 93.6833 36.7406 94.35C36.1406 94.9833 35.7573 95.8167 35.5906 96.85C35.4906 97.55 35.4906 98.2667 35.5906 99C35.724 99.7 35.974 100.35 36.3406 100.95C36.7406 101.517 37.274 102 37.9406 102.4C38.6406 102.8 39.5073 103.05 40.5406 103.15C41.2406 103.217 41.9406 103.217 42.6406 103.15C43.3406 103.05 43.9906 102.85 44.5906 102.55C45.1906 102.25 45.7073 101.833 46.1406 101.3C46.574 100.733 46.8906 100.033 47.0906 99.2ZM80.6945 101.05C80.5945 101.05 80.5445 101.017 80.5445 100.95C80.2112 100.683 79.9779 100.3 79.8445 99.8C79.7445 99.2667 79.6945 98.8167 79.6945 98.45C79.6612 97.85 79.6112 97.25 79.5445 96.65C79.5112 96.05 79.4945 95.4667 79.4945 94.9C79.4945 94.0333 79.4945 93.1333 79.4945 92.2C79.4945 91.2333 79.5779 90.3333 79.7445 89.5C79.8445 88.9667 80.0112 88.55 80.2445 88.25C80.4779 87.9167 80.8445 87.65 81.3445 87.45C81.8112 87.2833 82.2779 87.1667 82.7445 87.1C83.2112 87.0333 83.6779 86.9667 84.1445 86.9C84.7112 86.8333 85.2945 86.8167 85.8945 86.85C86.4945 86.8833 87.0945 86.9 87.6945 86.9H97.1945C98.0279 86.9 98.6612 86.9 99.0945 86.9C99.5612 86.9 99.9779 86.9 100.345 86.9C100.711 86.9 101.111 86.9 101.545 86.9C102.011 86.8667 102.661 86.85 103.495 86.85C103.795 86.85 104.078 86.85 104.345 86.85C104.645 86.85 104.945 86.8667 105.245 86.9C105.878 86.9333 106.528 86.9833 107.195 87.05C107.861 87.1167 108.478 87.2833 109.045 87.55C109.711 87.8167 110.161 88.2667 110.395 88.9C110.628 89.5 110.761 90.1333 110.795 90.8C110.861 91.5667 110.861 92.3833 110.795 93.25C110.761 94.1167 110.745 94.9333 110.745 95.7C110.711 96.3667 110.678 97.0333 110.645 97.7C110.645 98.3667 110.561 99.0333 110.395 99.7C110.295 100.067 110.178 100.4 110.045 100.7C109.911 100.967 109.645 101.167 109.245 101.3C108.878 101.433 108.495 101.517 108.095 101.55C107.695 101.583 107.311 101.6 106.945 101.6H85.3445C85.0112 101.6 84.6779 101.6 84.3445 101.6C84.0445 101.567 83.7279 101.533 83.3945 101.5C82.9612 101.467 82.4945 101.45 81.9945 101.45C81.4945 101.45 81.0612 101.317 80.6945 101.05ZM108.445 110.6C106.778 110.667 105.245 110.717 103.845 110.75C102.445 110.783 100.895 110.8 99.1945 110.8C99.1612 111.5 99.1279 112.2 99.0945 112.9C99.0612 113.6 99.0445 114.433 99.0445 115.4C98.9779 115.767 98.8112 116.083 98.5445 116.35C98.3112 116.617 98.0279 116.85 97.6945 117.05C97.3612 117.25 96.9945 117.4 96.5945 117.5C96.2279 117.567 95.8779 117.6 95.5445 117.6C94.5445 117.533 93.7612 117.283 93.1945 116.85C92.6612 116.417 92.3445 115.7 92.2445 114.7C92.1779 114.033 92.1612 113.367 92.1945 112.7C92.2612 112.033 92.2945 111.367 92.2945 110.7C91.5279 110.7 90.5112 110.7 89.2445 110.7C87.9779 110.667 86.6612 110.65 85.2945 110.65C83.9279 110.617 82.6112 110.583 81.3445 110.55C80.1112 110.517 79.1445 110.467 78.4445 110.4C77.9112 110.333 77.4779 110.267 77.1445 110.2C76.8445 110.1 76.4779 109.85 76.0445 109.45C75.8112 109.25 75.6445 108.983 75.5445 108.65C75.4445 108.317 75.3945 107.967 75.3945 107.6C75.3945 106.9 75.6112 106.333 76.0445 105.9C76.2779 105.633 76.5945 105.433 76.9945 105.3C77.3945 105.167 77.7779 105.067 78.1445 105C78.5112 104.933 78.8279 104.9 79.0945 104.9C79.3945 104.9 79.5612 104.9 79.5945 104.9H108.195C108.695 104.9 109.195 104.9 109.695 104.9C110.195 104.9 110.678 104.917 111.145 104.95C111.611 104.983 112.061 105.05 112.495 105.15C112.961 105.25 113.378 105.467 113.745 105.8C114.111 106.067 114.311 106.367 114.345 106.7C114.411 107.033 114.445 107.4 114.445 107.8C114.445 108.3 114.295 108.75 113.995 109.15C113.728 109.55 113.345 109.833 112.845 110C112.178 110.267 111.445 110.433 110.645 110.5C109.878 110.533 109.145 110.567 108.445 110.6ZM109.845 120.05C109.878 120.05 109.995 120.083 110.195 120.15C110.395 120.217 110.611 120.333 110.845 120.5C111.111 120.633 111.345 120.833 111.545 121.1C111.778 121.333 111.928 121.617 111.995 121.95C112.195 123.217 111.995 124.2 111.395 124.9C111.028 125.367 110.628 125.65 110.195 125.75C109.761 125.85 109.528 125.9 109.495 125.9H82.1945C80.9279 125.9 79.9279 125.683 79.1945 125.25C78.4612 124.85 78.0945 124.267 78.0945 123.5V119.05C78.0279 118.317 78.0279 117.567 78.0945 116.8C78.1612 116.1 78.4279 115.533 78.8945 115.1C79.3612 114.667 79.9445 114.45 80.6445 114.45C80.8112 114.45 81.0279 114.467 81.2945 114.5C81.5945 114.5 81.8279 114.533 81.9945 114.6C82.4279 114.733 82.7612 114.933 82.9945 115.2C83.2279 115.467 83.4112 115.783 83.5445 116.15C83.6779 116.483 83.7612 116.85 83.7945 117.25C83.8279 117.617 83.8612 117.983 83.8945 118.35C83.8945 118.617 83.9112 118.9 83.9445 119.2C83.9779 119.467 84.0279 119.717 84.0945 119.95C84.1612 119.983 84.4612 120.033 84.9945 120.1C85.5612 120.133 86.4279 120.15 87.5945 120.15C88.5945 120.15 89.4779 120.133 90.2445 120.1C91.0445 120.067 91.4612 120.05 91.4945 120.05H109.845ZM85.4445 95.2C85.4445 95.3667 85.4445 95.5333 85.4445 95.7C85.4779 95.8333 85.5279 95.9333 85.5945 96C85.6612 96.0667 85.7779 96.1167 85.9445 96.15C86.1112 96.15 86.2779 96.15 86.4445 96.15C86.6112 96.15 86.8112 96.1333 87.0445 96.1H100.195C100.661 96.1333 101.111 96.1667 101.545 96.2C101.911 96.2333 102.295 96.25 102.695 96.25C103.128 96.25 103.495 96.2167 103.795 96.15C104.161 96.1167 104.361 96.0333 104.395 95.9C104.461 95.7333 104.528 95.5 104.595 95.2C104.628 94.9333 104.645 94.5667 104.645 94.1C104.645 93.6333 104.545 93.2667 104.345 93C104.111 92.7333 103.778 92.6 103.345 92.6C102.911 92.5667 102.545 92.5667 102.245 92.6H97.6945C97.5945 92.6 97.1945 92.6 96.4945 92.6C95.7945 92.6 95.0279 92.6 94.1945 92.6C93.3945 92.6 92.6445 92.6 91.9445 92.6C91.2445 92.6 90.8445 92.6 90.7445 92.6C90.0445 92.5333 89.3445 92.5167 88.6445 92.55C87.9445 92.55 87.2279 92.5667 86.4945 92.6C86.1945 92.6 85.9779 92.6167 85.8445 92.65C85.7112 92.65 85.6112 92.8 85.5445 93.1C85.4779 93.3333 85.4445 93.6167 85.4445 93.95C85.4445 94.2833 85.4445 94.55 85.4445 94.75V95.2ZM156.709 122.35C157.242 122.383 157.709 122.517 158.109 122.75C158.509 122.95 158.792 123.333 158.959 123.9C159.126 124.5 159.109 125.017 158.909 125.45C158.709 125.917 158.292 126.267 157.659 126.5C157.259 126.667 156.842 126.767 156.409 126.8C156.009 126.833 155.642 126.85 155.309 126.85H132.859C132.192 126.85 131.492 126.85 130.759 126.85C130.026 126.85 129.292 126.833 128.559 126.8C127.659 126.767 127.026 126.467 126.659 125.9C126.326 125.333 126.126 124.667 126.059 123.9L125.859 120.45C125.826 120.083 125.826 119.6 125.859 119C125.926 118.367 126.109 117.867 126.409 117.5C126.876 117 127.409 116.683 128.009 116.55C128.609 116.417 129.276 116.35 130.009 116.35H131.559C131.726 116.35 131.859 116.367 131.959 116.4C132.059 116.4 132.159 116.4 132.259 116.4H152.759V114.4H131.759C131.592 114.4 131.409 114.4 131.209 114.4C131.042 114.367 130.859 114.367 130.659 114.4H129.459C128.926 114.4 128.342 114.367 127.709 114.3C127.076 114.233 126.609 113.967 126.309 113.5C126.109 113.133 125.976 112.8 125.909 112.5C125.842 112.2 125.876 111.85 126.009 111.45C126.142 111.017 126.442 110.7 126.909 110.5C127.376 110.267 127.892 110.1 128.459 110C129.059 109.9 129.676 109.85 130.309 109.85C130.942 109.85 131.492 109.85 131.959 109.85H153.259C154.959 109.85 156.259 110.15 157.159 110.75C158.059 111.317 158.509 112.2 158.509 113.4V117.4C158.509 117.867 158.392 118.317 158.159 118.75C157.959 119.183 157.592 119.583 157.059 119.95C156.626 120.217 156.192 120.367 155.759 120.4C155.326 120.4 154.892 120.4 154.459 120.4H132.009V122.35H156.709ZM141.359 101.1C141.926 101.767 142.492 102.467 143.059 103.2C143.626 103.933 144.009 104.667 144.209 105.4C144.276 105.733 144.276 106.083 144.209 106.45C144.142 106.817 143.959 107.133 143.659 107.4C143.159 107.733 142.626 107.9 142.059 107.9C141.426 107.9 140.809 107.75 140.209 107.45C139.642 107.15 139.176 106.85 138.809 106.55C138.242 106.05 137.726 105.55 137.259 105.05C136.792 104.517 136.326 104 135.859 103.5C135.492 103.1 135.092 102.7 134.659 102.3C134.226 101.9 133.842 101.467 133.509 101L128.559 106.45C128.026 107.017 127.459 107.417 126.859 107.65C126.259 107.85 125.692 107.95 125.159 107.95C124.992 107.95 124.742 107.917 124.409 107.85C123.776 107.683 123.342 107.383 123.109 106.95C122.909 106.583 122.842 106.167 122.909 105.7C122.976 105.233 123.109 104.817 123.309 104.45C123.542 104.05 123.792 103.683 124.059 103.35C124.359 103.017 124.659 102.667 124.959 102.3C125.826 101.333 126.659 100.333 127.459 99.3C128.292 98.2333 129.192 97.2 130.159 96.2V93.95C129.892 93.9833 129.559 94 129.159 94C128.759 93.9667 128.276 93.95 127.709 93.95C127.342 93.95 126.926 93.9667 126.459 94C125.992 94.0333 125.526 94.0167 125.059 93.95C124.626 93.8833 124.226 93.75 123.859 93.55C123.492 93.3167 123.209 92.95 123.009 92.45C122.842 92.0833 122.742 91.6667 122.709 91.2C122.676 90.7333 122.709 90.3 122.809 89.9C122.909 89.4333 123.159 89.1167 123.559 88.95C123.992 88.75 124.392 88.6167 124.759 88.55C125.092 88.4833 125.392 88.45 125.659 88.45C125.759 88.45 125.859 88.4667 125.959 88.5C126.059 88.5 126.159 88.5 126.259 88.5H130.309C130.376 87.7333 130.526 87.0167 130.759 86.35C131.026 85.65 131.526 85.1667 132.259 84.9C132.826 84.7 133.342 84.65 133.809 84.75C134.309 84.85 134.742 85.05 135.109 85.35C135.476 85.65 135.776 86.0333 136.009 86.5C136.242 86.9667 136.392 87.45 136.459 87.95C136.492 88.05 136.509 88.15 136.509 88.25C136.542 88.3167 136.559 88.4 136.559 88.5H139.409C140.576 88.5 141.509 88.5833 142.209 88.75C142.909 88.8833 143.492 89.2833 143.959 89.95C144.092 90.15 144.192 90.4333 144.259 90.8C144.326 91.1333 144.326 91.4833 144.259 91.85C144.226 92.1833 144.142 92.5 144.009 92.8C143.876 93.1 143.709 93.3167 143.509 93.45C143.242 93.55 142.942 93.6667 142.609 93.8C142.309 93.9 142.026 93.95 141.759 93.95C141.359 93.9833 140.992 94 140.659 94C140.359 93.9667 140.009 93.95 139.609 93.95C139.009 93.95 138.542 93.9667 138.209 94C137.876 94 137.476 93.9833 137.009 93.95C137.009 94.3833 137.009 94.6333 137.009 94.7C137.009 94.7667 137.009 94.8167 137.009 94.85C137.009 94.8833 137.009 94.9833 137.009 95.15C137.009 95.2833 137.009 95.6333 137.009 96.2C137.176 96.3333 137.392 96.6 137.659 97C137.926 97.4 138.192 97.7333 138.459 98C138.726 98.2667 139.009 98.5667 139.309 98.9C139.609 99.2 139.926 99.5333 140.259 99.9C140.492 100.133 140.692 100.35 140.859 100.55C141.026 100.75 141.192 100.933 141.359 101.1ZM158.459 104.3C158.426 104.667 158.376 105.05 158.309 105.45C158.242 105.817 158.109 106.183 157.909 106.55C157.676 106.983 157.392 107.3 157.059 107.5C156.826 107.667 156.526 107.8 156.159 107.9C155.792 108 155.459 108.05 155.159 108.05C154.659 108.05 154.192 107.917 153.759 107.65C153.292 107.383 152.926 106.967 152.659 106.4C152.392 105.833 152.259 105.317 152.259 104.85V100.05C151.959 100.05 151.609 100.05 151.209 100.05C150.809 100.05 150.409 100.05 150.009 100.05C149.609 100.017 149.226 100 148.859 100C148.526 99.9667 148.276 99.9333 148.109 99.9C147.142 99.7667 146.342 99.4667 145.709 99C145.109 98.5 144.892 97.7 145.059 96.6C145.192 95.8667 145.409 95.3167 145.709 94.95C146.042 94.55 146.576 94.3333 147.309 94.3C147.542 94.3 147.759 94.3 147.959 94.3C148.192 94.2667 148.442 94.25 148.709 94.25C149.109 94.25 149.692 94.25 150.459 94.25C151.226 94.2167 151.826 94.2 152.259 94.2V90.45C152.259 90.3833 152.259 90.2167 152.259 89.95C152.292 89.6833 152.309 89.4 152.309 89.1C152.342 88.7667 152.392 88.45 152.459 88.15C152.526 87.8167 152.609 87.55 152.709 87.35C152.876 87.05 153.126 86.8 153.459 86.6C153.826 86.3667 154.242 86.2167 154.709 86.15C155.276 86.0833 155.792 86.1167 156.259 86.25C156.759 86.3833 157.142 86.6 157.409 86.9C157.876 87.4 158.176 87.9167 158.309 88.45C158.409 88.7833 158.459 89.2667 158.459 89.9C158.492 90.5333 158.492 91.0333 158.459 91.4V94.1C158.459 95.1 158.476 96.0167 158.509 96.85C158.542 97.65 158.559 98.45 158.559 99.25C158.592 100.017 158.592 100.8 158.559 101.6C158.559 102.4 158.526 103.3 158.459 104.3Z" fill="#FF0056"/>
<path d="M256.622 54.1589C256.622 79.998 235.046 100.943 208.407 100.943C204.427 100.943 200.572 100.477 196.874 99.5897C195.753 99.321 194.582 99.4242 193.55 99.9376L182.998 105.189C180.274 106.545 177.068 104.573 177.068 101.54V91.8836C177.068 90.504 176.448 89.2181 175.426 88.2872C166.039 79.7461 160.193 67.6183 160.193 54.1589C160.193 28.3198 181.769 7.375 208.407 7.375C235.046 7.375 256.622 28.3198 256.622 54.1589Z" fill="url(#paint0_radial_31_843)"/>
<path opacity="0.07" fill-rule="evenodd" clip-rule="evenodd" d="M222.034 46.0312C224.625 43.1445 224.625 38.7699 222.034 35.8833L215.204 28.2724C212.773 25.5632 208.528 25.5632 206.097 28.2724V28.2724L200.762 33.9619L197.542 37.5497L192.436 43.4942V43.4942C189.846 46.3808 189.846 50.7555 192.436 53.6421L199.267 61.253C201.698 63.9621 205.943 63.9621 208.374 61.253V61.253L210.008 59.5159C210.282 59.2248 210.599 58.9776 210.949 58.7831V58.7831C212.526 57.904 214.502 58.2258 215.719 59.5603L229.103 74.2341C230.462 75.7233 232.809 75.7138 234.155 74.2137V74.2137C235.31 72.9271 235.318 70.9797 234.173 69.6839L220.591 54.302C219.307 52.8473 219.02 50.7642 219.865 49.0169V49.0169C220.009 48.7185 220.183 48.4358 220.385 48.1733L222.034 46.0312V46.0312ZM206.834 77.0157C208.815 77.0157 210.422 75.4094 210.422 73.4279V73.4279C210.422 71.4464 208.815 69.8401 206.834 69.8401H181.811C179.83 69.8401 178.223 71.4464 178.223 73.4279V73.4279C178.223 75.4094 179.83 77.0157 181.811 77.0157H206.834Z" fill="black"/>
<path fill-rule="evenodd" clip-rule="evenodd" d="M221.622 47.0069C224.141 44.2004 224.141 39.9473 221.622 37.1409L214.982 29.7414C212.618 27.1075 208.491 27.1075 206.128 29.7414V29.7414L200.941 35.2728L197.811 38.761L192.847 44.5404V44.5404C190.328 47.3469 190.328 51.6 192.847 54.4064L199.487 61.8059C201.851 64.4398 205.977 64.4398 208.341 61.8059V61.8059L209.93 60.1171C210.197 59.8341 210.505 59.5937 210.845 59.4046V59.4046C212.379 58.5499 214.299 58.8628 215.482 60.1602L228.495 74.4264C229.816 75.8743 232.098 75.8651 233.406 74.4066V74.4066C234.529 73.1558 234.537 71.2625 233.424 70.0026L220.219 55.048C218.971 53.6337 218.692 51.6085 219.513 49.9097V49.9097C219.653 49.6196 219.823 49.3448 220.019 49.0895L221.622 47.0069V47.0069ZM206.844 77.1308C208.771 77.1308 210.332 75.5691 210.332 73.6427V73.6427C210.332 71.7162 208.771 70.1545 206.844 70.1545H182.516C180.59 70.1545 179.028 71.7162 179.028 73.6427V73.6427C179.028 75.5691 180.59 77.1308 182.516 77.1308H206.844Z" fill="white"/>
<path d="M200.842 49.9594C203.641 52.8512 212.766 51.861 212.766 51.861C212.766 51.861 214.052 42.7736 211.253 39.8817C209.707 38.2846 207.159 38.2432 205.561 39.7892C204.615 40.7049 204.215 41.9722 204.367 43.1852C203.16 42.9936 201.88 43.3524 200.935 44.2682C199.337 45.8142 199.296 48.3622 200.842 49.9594Z" fill="#FF0056"/>
</g>
<defs>
<radialGradient id="paint0_radial_31_843" cx="0" cy="0" r="1" gradientUnits="userSpaceOnUse" gradientTransform="translate(177.278 100.89) scale(114.78 114.23)">
<stop stop-color="#FF0056"/>
<stop offset="0.079" stop-color="#FF0056"/>
<stop offset="0.23" stop-color="#FF0056"/>
<stop offset="0.351" stop-color="#FF0056"/>
<stop offset="0.428" stop-color="#FF0056"/>
<stop offset="0.754" stop-color="#FF0056"/>
<stop offset="0.946" stop-color="#FF0056"/>
</radialGradient>
<clipPath id="clip0_31_843">
<rect width="282" height="137" fill="white"/>
</clipPath>
</defs>
</svg>
